<mxfile host="app.diagrams.net" modified="2024-06-09T16:44:04.810Z" agent="Mozilla/5.0 (Windows NT 10.0; Win64; x64) AppleWebKit/537.36 (KHTML, like Gecko) Chrome/125.0.0.0 Safari/537.36" etag="XVLtyJS4RtyI1_qrxGMP" version="24.5.2" type="github">
  <diagram name="Страница — 1" id="e-6qt5zOmuHjVq2N8JB4">
    <mxGraphModel dx="956" dy="549" grid="1" gridSize="10" guides="1" tooltips="1" connect="1" arrows="1" fold="1" page="1" pageScale="1" pageWidth="827" pageHeight="1169" math="0" shadow="0">
      <root>
        <mxCell id="0" />
        <mxCell id="1" parent="0" />
        <mxCell id="MA05RyKYBN23lNn1xLHW-2" value="" style="swimlane;startSize=0;" parent="1" vertex="1">
          <mxGeometry x="130" y="90" width="860" height="610" as="geometry" />
        </mxCell>
        <mxCell id="MA05RyKYBN23lNn1xLHW-9" value="интерфейс клиента" style="shape=umlBoundary;whiteSpace=wrap;html=1;" parent="MA05RyKYBN23lNn1xLHW-2" vertex="1">
          <mxGeometry x="60" y="110" width="80" height="60" as="geometry" />
        </mxCell>
        <mxCell id="MA05RyKYBN23lNn1xLHW-12" value="окно оформления кредита" style="shape=umlBoundary;whiteSpace=wrap;html=1;" parent="MA05RyKYBN23lNn1xLHW-2" vertex="1">
          <mxGeometry x="169" y="190" width="100" height="60" as="geometry" />
        </mxCell>
        <mxCell id="MA05RyKYBN23lNn1xLHW-13" value="окно вызова консультанта&amp;nbsp;" style="shape=umlBoundary;whiteSpace=wrap;html=1;" parent="MA05RyKYBN23lNn1xLHW-2" vertex="1">
          <mxGeometry x="169" y="77.5" width="100" height="60" as="geometry" />
        </mxCell>
        <mxCell id="MA05RyKYBN23lNn1xLHW-14" value="составление заявки на вызов" style="ellipse;shape=umlControl;whiteSpace=wrap;html=1;" parent="MA05RyKYBN23lNn1xLHW-2" vertex="1">
          <mxGeometry x="310" y="70" width="80" height="65" as="geometry" />
        </mxCell>
        <mxCell id="MA05RyKYBN23lNn1xLHW-16" value="вызов консультанта" style="ellipse;shape=umlEntity;whiteSpace=wrap;html=1;" parent="MA05RyKYBN23lNn1xLHW-2" vertex="1">
          <mxGeometry x="460" y="75" width="80" height="55" as="geometry" />
        </mxCell>
        <mxCell id="MA05RyKYBN23lNn1xLHW-18" value="составление заявки на кредит" style="ellipse;shape=umlControl;whiteSpace=wrap;html=1;" parent="MA05RyKYBN23lNn1xLHW-2" vertex="1">
          <mxGeometry x="310" y="187.5" width="80" height="65" as="geometry" />
        </mxCell>
        <mxCell id="MA05RyKYBN23lNn1xLHW-19" value="заявка на кредит" style="ellipse;shape=umlEntity;whiteSpace=wrap;html=1;" parent="MA05RyKYBN23lNn1xLHW-2" vertex="1">
          <mxGeometry x="460" y="190" width="80" height="55" as="geometry" />
        </mxCell>
        <mxCell id="MA05RyKYBN23lNn1xLHW-20" value="окно заявок на оформление кредита" style="shape=umlBoundary;whiteSpace=wrap;html=1;" parent="MA05RyKYBN23lNn1xLHW-2" vertex="1">
          <mxGeometry x="60" y="360" width="109" height="60" as="geometry" />
        </mxCell>
        <mxCell id="MA05RyKYBN23lNn1xLHW-21" value="окно заявок на вызов консультанта" style="shape=umlBoundary;whiteSpace=wrap;html=1;" parent="MA05RyKYBN23lNn1xLHW-2" vertex="1">
          <mxGeometry x="60" y="480" width="109" height="60" as="geometry" />
        </mxCell>
        <mxCell id="MA05RyKYBN23lNn1xLHW-23" value="обработка кредитного отчета" style="ellipse;shape=umlControl;whiteSpace=wrap;html=1;" parent="MA05RyKYBN23lNn1xLHW-2" vertex="1">
          <mxGeometry x="229" y="354" width="94" height="65" as="geometry" />
        </mxCell>
        <mxCell id="MA05RyKYBN23lNn1xLHW-24" value="Use" style="endArrow=open;endSize=12;dashed=1;html=1;rounded=0;entryX=0.5;entryY=1;entryDx=0;entryDy=0;exitX=0.839;exitY=0.254;exitDx=0;exitDy=0;exitPerimeter=0;" parent="MA05RyKYBN23lNn1xLHW-2" source="MA05RyKYBN23lNn1xLHW-23" target="MA05RyKYBN23lNn1xLHW-19" edge="1">
          <mxGeometry width="160" relative="1" as="geometry">
            <mxPoint x="180" y="320" as="sourcePoint" />
            <mxPoint x="340" y="320" as="targetPoint" />
          </mxGeometry>
        </mxCell>
        <mxCell id="MA05RyKYBN23lNn1xLHW-25" value="Use" style="endArrow=open;endSize=12;dashed=1;html=1;rounded=0;entryX=0;entryY=0.5;entryDx=0;entryDy=0;exitX=1.017;exitY=0.523;exitDx=0;exitDy=0;exitPerimeter=0;" parent="MA05RyKYBN23lNn1xLHW-2" source="MA05RyKYBN23lNn1xLHW-18" target="MA05RyKYBN23lNn1xLHW-19" edge="1">
          <mxGeometry width="160" relative="1" as="geometry">
            <mxPoint x="318" y="381" as="sourcePoint" />
            <mxPoint x="510" y="255" as="targetPoint" />
          </mxGeometry>
        </mxCell>
        <mxCell id="MA05RyKYBN23lNn1xLHW-26" value="оформление кредитного договора" style="ellipse;shape=umlControl;whiteSpace=wrap;html=1;" parent="MA05RyKYBN23lNn1xLHW-2" vertex="1">
          <mxGeometry x="340" y="410" width="90" height="60" as="geometry" />
        </mxCell>
        <mxCell id="MA05RyKYBN23lNn1xLHW-27" style="edgeStyle=orthogonalEdgeStyle;rounded=0;orthogonalLoop=1;jettySize=auto;html=1;entryX=0.019;entryY=0.583;entryDx=0;entryDy=0;entryPerimeter=0;exitX=0.502;exitY=0.975;exitDx=0;exitDy=0;exitPerimeter=0;" parent="MA05RyKYBN23lNn1xLHW-2" source="MA05RyKYBN23lNn1xLHW-23" target="MA05RyKYBN23lNn1xLHW-26" edge="1">
          <mxGeometry relative="1" as="geometry">
            <Array as="points">
              <mxPoint x="276" y="445" />
            </Array>
          </mxGeometry>
        </mxCell>
        <mxCell id="MA05RyKYBN23lNn1xLHW-28" value="кредитный&lt;div&gt;договор&lt;/div&gt;" style="ellipse;shape=umlEntity;whiteSpace=wrap;html=1;" parent="MA05RyKYBN23lNn1xLHW-2" vertex="1">
          <mxGeometry x="470" y="415" width="80" height="55" as="geometry" />
        </mxCell>
        <mxCell id="MA05RyKYBN23lNn1xLHW-30" value="Use" style="endArrow=open;endSize=12;dashed=1;html=1;rounded=0;entryX=0;entryY=0.5;entryDx=0;entryDy=0;exitX=1.015;exitY=0.514;exitDx=0;exitDy=0;exitPerimeter=0;" parent="MA05RyKYBN23lNn1xLHW-2" source="MA05RyKYBN23lNn1xLHW-26" target="MA05RyKYBN23lNn1xLHW-28" edge="1">
          <mxGeometry width="160" relative="1" as="geometry">
            <mxPoint x="318" y="381" as="sourcePoint" />
            <mxPoint x="510" y="255" as="targetPoint" />
          </mxGeometry>
        </mxCell>
        <mxCell id="MA05RyKYBN23lNn1xLHW-31" value="оформление&amp;nbsp; кредита" style="ellipse;shape=umlControl;whiteSpace=wrap;html=1;" parent="MA05RyKYBN23lNn1xLHW-2" vertex="1">
          <mxGeometry x="580" y="410" width="90" height="60" as="geometry" />
        </mxCell>
        <mxCell id="MA05RyKYBN23lNn1xLHW-32" style="edgeStyle=orthogonalEdgeStyle;rounded=0;orthogonalLoop=1;jettySize=auto;html=1;entryX=-0.027;entryY=0.548;entryDx=0;entryDy=0;entryPerimeter=0;" parent="MA05RyKYBN23lNn1xLHW-2" source="MA05RyKYBN23lNn1xLHW-28" target="MA05RyKYBN23lNn1xLHW-31" edge="1">
          <mxGeometry relative="1" as="geometry" />
        </mxCell>
        <mxCell id="MA05RyKYBN23lNn1xLHW-33" value="кредит" style="ellipse;shape=umlEntity;whiteSpace=wrap;html=1;" parent="MA05RyKYBN23lNn1xLHW-2" vertex="1">
          <mxGeometry x="711" y="412.5" width="80" height="55" as="geometry" />
        </mxCell>
        <mxCell id="MA05RyKYBN23lNn1xLHW-35" value="обработка&lt;div&gt;заявки на вызов консультанта&lt;/div&gt;" style="ellipse;shape=umlControl;whiteSpace=wrap;html=1;" parent="MA05RyKYBN23lNn1xLHW-2" vertex="1">
          <mxGeometry x="237" y="510" width="94" height="65" as="geometry" />
        </mxCell>
        <mxCell id="MA05RyKYBN23lNn1xLHW-36" value="Use" style="endArrow=open;endSize=12;dashed=1;html=1;rounded=0;exitX=1.017;exitY=0.5;exitDx=0;exitDy=0;exitPerimeter=0;entryX=1;entryY=0.5;entryDx=0;entryDy=0;" parent="MA05RyKYBN23lNn1xLHW-2" source="MA05RyKYBN23lNn1xLHW-35" target="MA05RyKYBN23lNn1xLHW-16" edge="1">
          <mxGeometry width="160" relative="1" as="geometry">
            <mxPoint x="318" y="381" as="sourcePoint" />
            <mxPoint x="510" y="255" as="targetPoint" />
            <Array as="points">
              <mxPoint x="840" y="543" />
              <mxPoint x="840" y="110" />
            </Array>
          </mxGeometry>
        </mxCell>
        <mxCell id="MA05RyKYBN23lNn1xLHW-37" value="Use" style="endArrow=open;endSize=12;dashed=1;html=1;rounded=0;entryX=0;entryY=0.5;entryDx=0;entryDy=0;exitX=1.03;exitY=0.609;exitDx=0;exitDy=0;exitPerimeter=0;" parent="MA05RyKYBN23lNn1xLHW-2" source="MA05RyKYBN23lNn1xLHW-14" target="MA05RyKYBN23lNn1xLHW-16" edge="1">
          <mxGeometry width="160" relative="1" as="geometry">
            <mxPoint x="401" y="231" as="sourcePoint" />
            <mxPoint x="470" y="228" as="targetPoint" />
          </mxGeometry>
        </mxCell>
        <mxCell id="MA05RyKYBN23lNn1xLHW-38" style="edgeStyle=orthogonalEdgeStyle;rounded=0;orthogonalLoop=1;jettySize=auto;html=1;entryX=-0.009;entryY=0.574;entryDx=0;entryDy=0;entryPerimeter=0;" parent="MA05RyKYBN23lNn1xLHW-2" source="MA05RyKYBN23lNn1xLHW-13" target="MA05RyKYBN23lNn1xLHW-14" edge="1">
          <mxGeometry relative="1" as="geometry" />
        </mxCell>
        <mxCell id="MA05RyKYBN23lNn1xLHW-39" style="edgeStyle=orthogonalEdgeStyle;rounded=0;orthogonalLoop=1;jettySize=auto;html=1;" parent="MA05RyKYBN23lNn1xLHW-2" source="MA05RyKYBN23lNn1xLHW-12" edge="1">
          <mxGeometry relative="1" as="geometry">
            <mxPoint x="310" y="220" as="targetPoint" />
          </mxGeometry>
        </mxCell>
        <mxCell id="MA05RyKYBN23lNn1xLHW-40" style="edgeStyle=orthogonalEdgeStyle;rounded=0;orthogonalLoop=1;jettySize=auto;html=1;entryX=-0.004;entryY=0.561;entryDx=0;entryDy=0;entryPerimeter=0;" parent="MA05RyKYBN23lNn1xLHW-2" source="MA05RyKYBN23lNn1xLHW-20" target="MA05RyKYBN23lNn1xLHW-23" edge="1">
          <mxGeometry relative="1" as="geometry" />
        </mxCell>
        <mxCell id="MA05RyKYBN23lNn1xLHW-41" style="edgeStyle=orthogonalEdgeStyle;rounded=0;orthogonalLoop=1;jettySize=auto;html=1;entryX=0.006;entryY=0.623;entryDx=0;entryDy=0;entryPerimeter=0;" parent="MA05RyKYBN23lNn1xLHW-2" source="MA05RyKYBN23lNn1xLHW-21" target="MA05RyKYBN23lNn1xLHW-35" edge="1">
          <mxGeometry relative="1" as="geometry" />
        </mxCell>
        <mxCell id="MA05RyKYBN23lNn1xLHW-44" value="" style="endArrow=diamondThin;endFill=0;endSize=24;html=1;rounded=0;entryX=0.987;entryY=0.341;entryDx=0;entryDy=0;entryPerimeter=0;exitX=-0.011;exitY=0.527;exitDx=0;exitDy=0;exitPerimeter=0;" parent="MA05RyKYBN23lNn1xLHW-2" source="MA05RyKYBN23lNn1xLHW-13" target="MA05RyKYBN23lNn1xLHW-9" edge="1">
          <mxGeometry width="160" relative="1" as="geometry">
            <mxPoint x="220" y="280" as="sourcePoint" />
            <mxPoint x="380" y="280" as="targetPoint" />
          </mxGeometry>
        </mxCell>
        <mxCell id="MA05RyKYBN23lNn1xLHW-45" value="" style="endArrow=diamondThin;endFill=0;endSize=24;html=1;rounded=0;entryX=0.969;entryY=0.847;entryDx=0;entryDy=0;entryPerimeter=0;exitX=-0.004;exitY=0.502;exitDx=0;exitDy=0;exitPerimeter=0;" parent="MA05RyKYBN23lNn1xLHW-2" source="MA05RyKYBN23lNn1xLHW-12" target="MA05RyKYBN23lNn1xLHW-9" edge="1">
          <mxGeometry width="160" relative="1" as="geometry">
            <mxPoint x="220" y="280" as="sourcePoint" />
            <mxPoint x="380" y="280" as="targetPoint" />
          </mxGeometry>
        </mxCell>
        <mxCell id="MA05RyKYBN23lNn1xLHW-3" value="Клиент банка" style="shape=umlActor;verticalLabelPosition=bottom;verticalAlign=top;html=1;outlineConnect=0;" parent="1" vertex="1">
          <mxGeometry x="70" y="200" width="30" height="60" as="geometry" />
        </mxCell>
        <mxCell id="MA05RyKYBN23lNn1xLHW-4" value="Сотрудник банка" style="shape=umlActor;verticalLabelPosition=bottom;verticalAlign=top;html=1;outlineConnect=0;" parent="1" vertex="1">
          <mxGeometry x="65" y="525" width="30" height="60" as="geometry" />
        </mxCell>
        <mxCell id="MA05RyKYBN23lNn1xLHW-11" style="edgeStyle=orthogonalEdgeStyle;rounded=0;orthogonalLoop=1;jettySize=auto;html=1;entryX=0.03;entryY=0.502;entryDx=0;entryDy=0;entryPerimeter=0;dashed=1;endArrow=none;endFill=0;" parent="1" source="MA05RyKYBN23lNn1xLHW-3" target="MA05RyKYBN23lNn1xLHW-9" edge="1">
          <mxGeometry relative="1" as="geometry" />
        </mxCell>
        <mxCell id="MA05RyKYBN23lNn1xLHW-34" value="Use" style="endArrow=open;endSize=12;dashed=1;html=1;rounded=0;entryX=0;entryY=0.5;entryDx=0;entryDy=0;" parent="1" target="MA05RyKYBN23lNn1xLHW-33" edge="1">
          <mxGeometry width="160" relative="1" as="geometry">
            <mxPoint x="800" y="530" as="sourcePoint" />
            <mxPoint x="610" y="543" as="targetPoint" />
          </mxGeometry>
        </mxCell>
        <mxCell id="MA05RyKYBN23lNn1xLHW-43" style="edgeStyle=orthogonalEdgeStyle;rounded=0;orthogonalLoop=1;jettySize=auto;html=1;entryX=-0.029;entryY=0.52;entryDx=0;entryDy=0;entryPerimeter=0;dashed=1;endArrow=none;endFill=0;" parent="1" source="MA05RyKYBN23lNn1xLHW-4" target="MA05RyKYBN23lNn1xLHW-21" edge="1">
          <mxGeometry relative="1" as="geometry">
            <mxPoint x="108" y="550" as="sourcePoint" />
            <mxPoint x="200" y="550" as="targetPoint" />
          </mxGeometry>
        </mxCell>
        <mxCell id="MA05RyKYBN23lNn1xLHW-42" style="edgeStyle=orthogonalEdgeStyle;rounded=0;orthogonalLoop=1;jettySize=auto;html=1;entryX=0.009;entryY=0.52;entryDx=0;entryDy=0;entryPerimeter=0;dashed=1;endArrow=none;endFill=0;" parent="1" source="MA05RyKYBN23lNn1xLHW-4" target="MA05RyKYBN23lNn1xLHW-20" edge="1">
          <mxGeometry relative="1" as="geometry">
            <mxPoint x="98" y="540" as="sourcePoint" />
            <mxPoint x="190" y="540" as="targetPoint" />
          </mxGeometry>
        </mxCell>
        <mxCell id="S6wP4L2hM6dd7UkBIjbo-1" value="" style="shape=umlLifeline;perimeter=lifelinePerimeter;whiteSpace=wrap;html=1;container=1;dropTarget=0;collapsible=0;recursiveResize=0;outlineConnect=0;portConstraint=eastwest;newEdgeStyle={&quot;curved&quot;:0,&quot;rounded&quot;:0};participant=umlActor;" vertex="1" parent="1">
          <mxGeometry x="1709" y="260" width="21" height="300" as="geometry" />
        </mxCell>
        <mxCell id="S6wP4L2hM6dd7UkBIjbo-20" value="" style="html=1;points=[[0,0,0,0,5],[0,1,0,0,-5],[1,0,0,0,5],[1,1,0,0,-5]];perimeter=orthogonalPerimeter;outlineConnect=0;targetShapes=umlLifeline;portConstraint=eastwest;newEdgeStyle={&quot;curved&quot;:0,&quot;rounded&quot;:0};" vertex="1" parent="S6wP4L2hM6dd7UkBIjbo-1">
          <mxGeometry x="5" y="60" width="11" height="190" as="geometry" />
        </mxCell>
        <mxCell id="S6wP4L2hM6dd7UkBIjbo-4" value="" style="shape=umlLifeline;perimeter=lifelinePerimeter;whiteSpace=wrap;html=1;container=1;dropTarget=0;collapsible=0;recursiveResize=0;outlineConnect=0;portConstraint=eastwest;newEdgeStyle={&quot;curved&quot;:0,&quot;rounded&quot;:0};participant=umlBoundary;" vertex="1" parent="1">
          <mxGeometry x="1849" y="260" width="51" height="300" as="geometry" />
        </mxCell>
        <mxCell id="S6wP4L2hM6dd7UkBIjbo-17" value="" style="html=1;points=[[0,0,0,0,5],[0,1,0,0,-5],[1,0,0,0,5],[1,1,0,0,-5]];perimeter=orthogonalPerimeter;outlineConnect=0;targetShapes=umlLifeline;portConstraint=eastwest;newEdgeStyle={&quot;curved&quot;:0,&quot;rounded&quot;:0};" vertex="1" parent="S6wP4L2hM6dd7UkBIjbo-4">
          <mxGeometry x="20" y="60" width="11" height="180" as="geometry" />
        </mxCell>
        <mxCell id="S6wP4L2hM6dd7UkBIjbo-6" value="&lt;span style=&quot;font-weight: normal;&quot;&gt;&lt;font style=&quot;font-size: 11px;&quot;&gt;Interface: Окно&amp;nbsp;&lt;/font&gt;&lt;/span&gt;&lt;div&gt;&lt;span style=&quot;font-weight: normal;&quot;&gt;&lt;font style=&quot;font-size: 11px;&quot;&gt;оформления кредита&lt;/font&gt;&lt;/span&gt;&lt;/div&gt;" style="text;align=center;fontStyle=1;verticalAlign=middle;spacingLeft=3;spacingRight=3;strokeColor=none;rotatable=0;points=[[0,0.5],[1,0.5]];portConstraint=eastwest;html=1;" vertex="1" parent="1">
          <mxGeometry x="1839" y="230" width="81" height="26" as="geometry" />
        </mxCell>
        <mxCell id="S6wP4L2hM6dd7UkBIjbo-7" value="&lt;span style=&quot;font-size: 11px; font-weight: 400;&quot;&gt;Actor: Клиент&lt;/span&gt;" style="text;align=center;fontStyle=1;verticalAlign=middle;spacingLeft=3;spacingRight=3;strokeColor=none;rotatable=0;points=[[0,0.5],[1,0.5]];portConstraint=eastwest;html=1;" vertex="1" parent="1">
          <mxGeometry x="1679" y="230" width="81" height="26" as="geometry" />
        </mxCell>
        <mxCell id="S6wP4L2hM6dd7UkBIjbo-10" value="&lt;span style=&quot;font-weight: normal;&quot;&gt;&lt;font style=&quot;font-size: 11px;&quot;&gt;Control Unit: C&lt;/font&gt;&lt;/span&gt;&lt;span style=&quot;font-weight: 400; text-wrap: wrap;&quot;&gt;оставление&amp;nbsp;&lt;/span&gt;&lt;div&gt;&lt;span style=&quot;font-weight: 400; text-wrap: wrap;&quot;&gt;заявки на кредит&lt;/span&gt;&lt;/div&gt;" style="text;align=center;fontStyle=1;verticalAlign=middle;spacingLeft=3;spacingRight=3;strokeColor=none;rotatable=0;points=[[0,0.5],[1,0.5]];portConstraint=eastwest;html=1;" vertex="1" parent="1">
          <mxGeometry x="2007" y="230" width="81" height="26" as="geometry" />
        </mxCell>
        <mxCell id="S6wP4L2hM6dd7UkBIjbo-11" value="" style="shape=umlLifeline;perimeter=lifelinePerimeter;whiteSpace=wrap;html=1;container=1;dropTarget=0;collapsible=0;recursiveResize=0;outlineConnect=0;portConstraint=eastwest;newEdgeStyle={&quot;curved&quot;:0,&quot;rounded&quot;:0};participant=umlControl;" vertex="1" parent="1">
          <mxGeometry x="2027" y="257" width="41" height="300" as="geometry" />
        </mxCell>
        <mxCell id="S6wP4L2hM6dd7UkBIjbo-26" value="" style="html=1;points=[[0,0,0,0,5],[0,1,0,0,-5],[1,0,0,0,5],[1,1,0,0,-5]];perimeter=orthogonalPerimeter;outlineConnect=0;targetShapes=umlLifeline;portConstraint=eastwest;newEdgeStyle={&quot;curved&quot;:0,&quot;rounded&quot;:0};" vertex="1" parent="S6wP4L2hM6dd7UkBIjbo-11">
          <mxGeometry x="16" y="80" width="11" height="140" as="geometry" />
        </mxCell>
        <mxCell id="S6wP4L2hM6dd7UkBIjbo-14" value="&lt;span style=&quot;font-weight: normal;&quot;&gt;&lt;font style=&quot;font-size: 11px;&quot;&gt;Entity: Заявка на кредит&lt;/font&gt;&lt;/span&gt;" style="text;align=center;fontStyle=1;verticalAlign=middle;spacingLeft=3;spacingRight=3;strokeColor=none;rotatable=0;points=[[0,0.5],[1,0.5]];portConstraint=eastwest;html=1;" vertex="1" parent="1">
          <mxGeometry x="2157" y="230" width="81" height="26" as="geometry" />
        </mxCell>
        <mxCell id="S6wP4L2hM6dd7UkBIjbo-16" value="" style="shape=umlLifeline;perimeter=lifelinePerimeter;whiteSpace=wrap;html=1;container=1;dropTarget=0;collapsible=0;recursiveResize=0;outlineConnect=0;portConstraint=eastwest;newEdgeStyle={&quot;curved&quot;:0,&quot;rounded&quot;:0};participant=umlEntity;" vertex="1" parent="1">
          <mxGeometry x="2177" y="260" width="41" height="300" as="geometry" />
        </mxCell>
        <mxCell id="S6wP4L2hM6dd7UkBIjbo-29" value="" style="html=1;points=[[0,0,0,0,5],[0,1,0,0,-5],[1,0,0,0,5],[1,1,0,0,-5]];perimeter=orthogonalPerimeter;outlineConnect=0;targetShapes=umlLifeline;portConstraint=eastwest;newEdgeStyle={&quot;curved&quot;:0,&quot;rounded&quot;:0};" vertex="1" parent="S6wP4L2hM6dd7UkBIjbo-16">
          <mxGeometry x="16" y="110" width="11" height="90" as="geometry" />
        </mxCell>
        <mxCell id="S6wP4L2hM6dd7UkBIjbo-18" value="&lt;font style=&quot;font-size: 8px;&quot;&gt;1. Ввод данных необходимых&lt;/font&gt;&lt;div&gt;&lt;font style=&quot;font-size: 8px;&quot;&gt;&amp;nbsp;для заявки&lt;/font&gt;&lt;/div&gt;" style="html=1;verticalAlign=bottom;endArrow=block;curved=0;rounded=0;entryX=0;entryY=0;entryDx=0;entryDy=5;fontSize=12;startSize=8;endSize=8;exitX=1;exitY=0;exitDx=0;exitDy=5;exitPerimeter=0;" edge="1" target="S6wP4L2hM6dd7UkBIjbo-17" parent="1" source="S6wP4L2hM6dd7UkBIjbo-20">
          <mxGeometry relative="1" as="geometry">
            <mxPoint x="1745" y="325" as="sourcePoint" />
          </mxGeometry>
        </mxCell>
        <mxCell id="S6wP4L2hM6dd7UkBIjbo-19" value="&lt;font style=&quot;font-size: 8px;&quot;&gt;6. получение информации&lt;/font&gt;&lt;div&gt;&lt;font style=&quot;font-size: 8px;&quot;&gt;о&amp;nbsp; сформированном&amp;nbsp;&lt;/font&gt;&lt;span style=&quot;font-size: 8px;&quot;&gt;вызове&lt;/span&gt;&lt;/div&gt;" style="html=1;verticalAlign=bottom;endArrow=open;dashed=1;endSize=8;curved=0;rounded=0;exitX=0;exitY=1;exitDx=0;exitDy=-5;fontSize=12;" edge="1" source="S6wP4L2hM6dd7UkBIjbo-17" parent="1" target="S6wP4L2hM6dd7UkBIjbo-1">
          <mxGeometry relative="1" as="geometry">
            <mxPoint x="1745" y="395" as="targetPoint" />
          </mxGeometry>
        </mxCell>
        <mxCell id="S6wP4L2hM6dd7UkBIjbo-27" value="&lt;font style=&quot;font-size: 8px;&quot;&gt;2.запрос с передачей данных&lt;/font&gt;" style="html=1;verticalAlign=bottom;endArrow=block;curved=0;rounded=0;fontSize=12;startSize=8;endSize=8;" edge="1" parent="1" target="S6wP4L2hM6dd7UkBIjbo-11">
          <mxGeometry relative="1" as="geometry">
            <mxPoint x="1879" y="360" as="sourcePoint" />
            <mxPoint x="1998.5" y="360" as="targetPoint" />
          </mxGeometry>
        </mxCell>
        <mxCell id="S6wP4L2hM6dd7UkBIjbo-28" value="&lt;font style=&quot;font-size: 8px;&quot;&gt;5. информация о сформированной&lt;/font&gt;&lt;div&gt;&lt;font style=&quot;font-size: 8px;&quot;&gt;заявке на кредит&lt;/font&gt;&lt;/div&gt;" style="html=1;verticalAlign=bottom;endArrow=open;dashed=1;endSize=8;curved=0;rounded=0;exitX=0;exitY=1;exitDx=0;exitDy=-5;fontSize=12;" edge="1" parent="1">
          <mxGeometry relative="1" as="geometry">
            <mxPoint x="1873.7857142857142" y="460" as="targetPoint" />
            <mxPoint x="2043.0000000000005" y="460" as="sourcePoint" />
          </mxGeometry>
        </mxCell>
        <mxCell id="S6wP4L2hM6dd7UkBIjbo-30" value="&lt;font style=&quot;font-size: 8px;&quot;&gt;3. запрос на формирование&lt;/font&gt;&lt;div&gt;&lt;font style=&quot;font-size: 8px;&quot;&gt;заявки на кредит&lt;/font&gt;&lt;/div&gt;" style="html=1;verticalAlign=bottom;endArrow=block;curved=0;rounded=0;fontSize=12;startSize=8;endSize=8;" edge="1" parent="1">
          <mxGeometry relative="1" as="geometry">
            <mxPoint x="2055" y="395" as="sourcePoint" />
            <mxPoint x="2192.9999999999995" y="394.64" as="targetPoint" />
          </mxGeometry>
        </mxCell>
        <mxCell id="S6wP4L2hM6dd7UkBIjbo-31" value="&lt;font style=&quot;font-size: 8px;&quot;&gt;4. информация о формировании&lt;/font&gt;&lt;div&gt;&lt;span style=&quot;font-size: 8px;&quot;&gt;заявки на кредит&lt;/span&gt;&lt;/div&gt;" style="html=1;verticalAlign=bottom;endArrow=open;dashed=1;endSize=8;curved=0;rounded=0;exitX=0;exitY=1;exitDx=0;exitDy=-5;fontSize=12;" edge="1" parent="1">
          <mxGeometry relative="1" as="geometry">
            <mxPoint x="2055" y="440" as="targetPoint" />
            <mxPoint x="2192.9999999999995" y="440" as="sourcePoint" />
          </mxGeometry>
        </mxCell>
        <mxCell id="S6wP4L2hM6dd7UkBIjbo-33" value="&lt;p style=&quot;margin:0px;margin-top:4px;text-align:center;&quot;&gt;&lt;b&gt;client&lt;/b&gt;&lt;/p&gt;&lt;hr size=&quot;1&quot; style=&quot;border-style:solid;&quot;&gt;&lt;p style=&quot;margin:0px;margin-left:4px;&quot;&gt;+ field: Type&lt;/p&gt;&lt;p style=&quot;margin:0px;margin-left:4px;&quot;&gt;+&amp;nbsp;&lt;/p&gt;&lt;hr size=&quot;1&quot; style=&quot;border-style:solid;&quot;&gt;&lt;p style=&quot;margin:0px;margin-left:4px;&quot;&gt;+ method(): Type&lt;/p&gt;" style="verticalAlign=top;align=left;overflow=fill;html=1;whiteSpace=wrap;" vertex="1" parent="1">
          <mxGeometry x="2640" y="300" width="160" height="90" as="geometry" />
        </mxCell>
      </root>
    </mxGraphModel>
  </diagram>
</mxfile>
